<?xml version="1.0" standalone="no"?>
<!DOCTYPE svg PUBLIC "-//W3C//DTD SVG 20010904//EN"
 "http://www.w3.org/TR/2001/REC-SVG-20010904/DTD/svg10.dtd">
<svg version="1.0" xmlns="http://www.w3.org/2000/svg"
 width="600.000000pt" height="600.000000pt" viewBox="0 0 600.000000 600.000000"
 preserveAspectRatio="xMidYMid meet">

<g transform="translate(0.000000,600.000000) scale(0.100000,-0.100000)"
fill="#000000" stroke="none">
<path d="M2120 4913 c-121 -18 -295 -141 -445 -314 -165 -191 -278 -429 -331
-694 -26 -128 -26 -444 -1 -570 68 -335 246 -647 485 -851 193 -165 367 -231
459 -174 40 24 52 46 63 116 30 181 -107 557 -384 1057 l-65 118 63 127 c132
269 241 547 292 747 36 141 40 307 10 368 -25 51 -84 79 -146 70z"/>
<path d="M3460 4891 c-30 -4 -46 -8 -34 -9 18 -2 20 -6 15 -39 -5 -32 -11 -38
-34 -41 -15 -2 -27 -9 -27 -15 0 -7 -14 -20 -31 -30 -17 -9 -33 -26 -36 -37
-4 -14 -14 -20 -35 -20 -32 0 -58 -20 -58 -44 0 -9 -8 -16 -20 -16 -12 0 -20
-7 -20 -16 0 -26 -26 -44 -64 -44 -20 0 -36 -4 -36 -10 0 -19 -32 -10 -37 10
-3 11 -9 20 -14 20 -5 0 -9 9 -9 20 0 11 -4 20 -10 20 -5 0 -10 9 -10 19 0 11
-6 21 -12 24 -9 3 -5 11 11 25 18 16 21 25 13 35 -8 10 -6 16 9 25 26 17 24
35 -3 27 -55 -16 -231 -107 -313 -161 -105 -69 -268 -222 -347 -326 -167 -218
-268 -462 -268 -645 1 -145 48 -200 164 -190 196 16 481 242 1014 803 192 203
301 302 423 386 83 57 216 123 269 133 19 3 44 8 55 10 11 2 27 4 35 5 29 3
-66 31 -185 55 -129 25 -316 37 -405 26z m-443 -117 c-3 -3 -12 -4 -19 -1 -8
3 -5 6 6 6 11 1 17 -2 13 -5z"/>
<path d="M3460 4122 c-47 -7 -59 -22 -25 -29 11 -3 61 -7 110 -9 152 -6 175
-11 175 -40 0 -23 3 -24 60 -24 33 0 60 -4 60 -10 0 -5 18 -10 40 -10 22 0 40
-4 40 -9 0 -5 9 -11 20 -14 11 -3 20 -12 20 -21 0 -11 9 -16 26 -16 21 0 25
-4 21 -20 -7 -27 18 -47 31 -24 8 15 12 11 23 -27 7 -24 16 -46 19 -49 18 -17
90 -200 90 -231 0 -11 5 -30 12 -42 17 -33 78 -263 71 -270 -2 -2 3 -9 10 -16
11 -9 9 15 -9 101 -69 335 -156 547 -274 669 -51 52 -61 58 -130 73 -80 19
-314 29 -390 18z"/>
<path d="M3358 4098 c-16 -5 -28 -14 -28 -19 0 -6 -5 -7 -10 -4 -16 10 -70
-33 -63 -51 4 -12 8 -13 14 -3 4 7 5 17 3 21 -3 5 6 7 21 4 23 -4 25 -3 14 10
-11 13 -10 15 2 13 7 -2 24 2 36 9 12 7 28 10 36 7 8 -4 14 0 14 10 0 17 -2
17 -39 3z"/>
<path d="M4267 3233 c-4 -3 -7 -11 -7 -17 0 -6 5 -5 12 2 6 6 9 14 7 17 -3 3
-9 2 -12 -2z"/>
<path d="M4025 3110 l30 -8 -27 -1 c-42 -2 -34 -21 8 -21 31 0 36 -3 31 -20
-3 -10 -1 -20 4 -22 4 -2 9 -24 10 -50 3 -46 18 -93 19 -58 1 9 6 6 14 -9 8
-15 12 -40 8 -63 -4 -34 -2 -38 17 -38 23 0 28 -15 9 -24 -10 -5 -10 -7 0 -12
8 -4 12 -38 12 -117 0 -151 -9 -217 -28 -217 -19 0 -41 -30 -41 -55 l0 -20 9
20 c8 18 9 18 9 2 1 -10 -6 -25 -14 -33 -8 -9 -15 -33 -15 -55 0 -32 -3 -39
-20 -39 -11 0 -20 -4 -20 -9 0 -5 -6 -16 -13 -23 -8 -7 -18 -27 -24 -43 -6
-17 -15 -29 -21 -28 -5 1 -12 -7 -15 -19 -5 -16 -3 -18 6 -9 6 6 15 11 20 11
5 0 -2 -9 -16 -20 -14 -11 -32 -17 -40 -14 -8 3 -18 1 -22 -5 -3 -6 -1 -11 6
-11 8 0 8 -4 -1 -15 -8 -10 -21 -13 -33 -9 -14 4 -17 3 -12 -6 5 -9 2 -10 -14
-5 -15 5 -19 3 -16 -7 3 -8 -5 -20 -20 -28 -14 -7 -25 -17 -25 -22 0 -4 -10
-8 -23 -8 -13 0 -34 -11 -47 -25 -13 -14 -31 -25 -41 -25 -29 0 -49 -11 -49
-29 0 -14 -2 -14 -10 -1 -5 8 -10 26 -10 39 0 40 -7 20 -14 -41 l-6 -56 103
58 c303 170 477 307 571 449 66 99 72 129 52 248 -51 304 -168 506 -292 502
-38 -1 -38 -2 -9 -9z"/>
<path d="M3965 3100 c-3 -6 1 -7 9 -4 18 7 21 14 7 14 -6 0 -13 -4 -16 -10z"/>
<path d="M3919 3063 l-24 -28 28 24 c25 23 32 31 24 31 -2 0 -14 -12 -28 -27z"/>
<path d="M2890 2224 c-19 -2 -100 -11 -180 -19 -167 -17 -403 -55 -569 -91
-23 -5 -23 -5 10 -37 81 -78 229 -207 289 -252 36 -27 67 -50 70 -52 2 -2 -1
-7 -7 -11 -6 -4 -14 -25 -18 -47 -11 -63 -15 -75 -30 -75 -8 0 -11 -7 -8 -20
4 -13 0 -20 -9 -20 -19 0 -73 -49 -81 -72 -4 -12 1 -18 21 -22 15 -2 3 -3 -26
-2 -29 2 -55 -1 -58 -5 -3 -5 37 -9 88 -9 368 0 757 146 974 365 70 72 104
134 104 194 0 114 -120 168 -390 175 -80 2 -161 2 -180 0z m-360 -474 c0 -5
-5 -10 -11 -10 -5 0 -7 5 -4 10 3 6 8 10 11 10 2 0 4 -4 4 -10z"/>
<path d="M1160 2108 c18 -26 43 -57 56 -69 l23 -22 -5 28 c-5 26 -3 27 26 21
19 -3 29 -2 25 4 -3 6 -14 10 -23 10 -22 0 -87 32 -115 57 -12 11 -7 -1 13
-29z"/>
<path d="M3632 2100 c0 -14 2 -19 5 -12 2 6 2 18 0 25 -3 6 -5 1 -5 -13z"/>
<path d="M1318 2053 c7 -3 16 -2 19 1 4 3 -2 6 -13 5 -11 0 -14 -3 -6 -6z"/>
<path d="M3622 2025 c0 -16 2 -22 5 -12 2 9 2 23 0 30 -3 6 -5 -1 -5 -18z"/>
<path d="M2228 1503 c6 -2 18 -2 25 0 6 3 1 5 -13 5 -14 0 -19 -2 -12 -5z"/>
</g>
</svg>
